<svg width="20" height="24" viewBox="0 0 20 24" fill="none" xmlns="http://www.w3.org/2000/svg">
<path d="M9.98207 0C13.5924 0 16.4973 2.89774 16.4973 6.47521V8.31521C18.5236 8.96035 20 10.8314 20 13.0661V18.9904C20 21.7569 17.7513 24 14.9791 24H5.02212C2.24866 24 0 21.7569 0 18.9904V13.0661C0 10.8314 1.47759 8.96035 3.50269 8.31521V6.47521C3.51464 2.89774 6.41961 0 9.98207 0ZM9.99402 13.6611C9.4202 13.6611 8.95397 14.1262 8.95397 14.6986V17.3459C8.95397 17.9302 9.4202 18.3953 9.99402 18.3953C10.5798 18.3953 11.046 17.9302 11.046 17.3459V14.6986C11.046 14.1262 10.5798 13.6611 9.99402 13.6611ZM10.006 2.08685C7.5792 2.08685 5.60669 4.04253 5.59474 6.45136V8.05645H14.4053V6.47521C14.4053 4.05446 12.4328 2.08685 10.006 2.08685Z" fill="#7C40FF"/>
</svg>
