<svg width="24" height="25" viewBox="0 0 24 25" fill="none" xmlns="http://www.w3.org/2000/svg">
<path d="M21.1754 13.4035C21.2268 13.0285 21.2525 12.641 21.2525 12.2285C21.2525 11.8285 21.2268 11.4285 21.1626 11.0535L23.7713 9.07852C24.0026 8.90351 24.0668 8.56602 23.9255 8.31602L21.4581 4.16602C21.3039 3.89102 20.9827 3.80352 20.6999 3.89102L17.6286 5.09102C16.9861 4.61602 16.305 4.21602 15.5468 3.91602L15.0842 0.741015C15.0328 0.441015 14.7758 0.228516 14.4673 0.228516H9.53266C9.22425 0.228516 8.98008 0.441015 8.92868 0.741015L8.46605 3.91602C7.70786 4.21602 7.01392 4.62852 6.38424 5.09102L3.31292 3.89102C3.0302 3.79102 2.70893 3.89102 2.55472 4.16602L0.100236 8.31602C-0.0539726 8.57852 -0.00256984 8.90351 0.254445 9.07852L2.86314 11.0535C2.79889 11.4285 2.74748 11.841 2.74748 12.2285C2.74748 12.616 2.77319 13.0285 2.83744 13.4035L0.228743 15.3785C-0.00256982 15.5535 -0.0668233 15.891 0.0745346 16.141L2.54187 20.291C2.69608 20.566 3.01735 20.6535 3.30006 20.566L6.37139 19.366C7.01392 19.841 7.69501 20.241 8.4532 20.541L8.91583 23.716C8.98008 24.016 9.22425 24.2285 9.53266 24.2285H14.4673C14.7758 24.2285 15.0328 24.016 15.0713 23.716L15.5339 20.541C16.2921 20.241 16.9861 19.841 17.6158 19.366L20.6871 20.566C20.9698 20.666 21.2911 20.566 21.4453 20.291L23.9126 16.141C24.0668 15.866 24.0026 15.5535 23.7584 15.3785L21.1754 13.4035ZM12 16.7285C9.45556 16.7285 7.37374 14.7035 7.37374 12.2285C7.37374 9.75352 9.45556 7.72852 12 7.72852C14.5444 7.72852 16.6263 9.75352 16.6263 12.2285C16.6263 14.7035 14.5444 16.7285 12 16.7285Z" fill="#7C40FF"/>
</svg>
