<svg width="206" height="49" viewBox="0 0 206 49" fill="none" xmlns="http://www.w3.org/2000/svg">
<path fill-rule="evenodd" clip-rule="evenodd" d="M80.7514 35.4197L77.9514 48.4377H71.5112L82.1515 1.25887H89.7805L99.7907 48.4377H93.2806L90.5505 35.4197H80.7514ZM89.7805 30.1696L87.6104 18.8981C86.9804 15.678 86.3504 11.4803 85.8616 8.11903H85.5804C85.0916 11.5491 84.3892 15.8881 83.7615 18.8981L81.5215 30.1696H89.7805ZM124.373 0V39.6886C124.373 42.2798 124.513 46.0599 124.652 48.4388H118.983L118.563 44.3099H118.353C117.233 46.6888 114.643 49 111.214 49C104.914 49 101.064 42.1387 101.064 31.5708C101.064 19.5305 106.173 13.8603 111.564 13.8603C114.293 13.8603 116.463 15.1215 117.653 17.7104H117.793V0H124.373ZM117.792 27.3695C117.792 26.7406 117.792 25.9706 117.722 25.2683C117.372 22.1894 115.622 19.5293 113.243 19.5293C109.111 19.5293 107.713 25.2683 107.713 31.5696C107.713 38.5698 109.533 43.4687 113.033 43.4687C114.503 43.4687 116.462 42.6987 117.582 38.6398C117.722 38.0797 117.792 37.2386 117.792 36.4709V27.3695ZM140.046 48.9988C133.257 48.9988 128.356 43.1887 128.356 31.5007C128.356 19.1093 134.165 13.8592 140.395 13.8592C147.115 13.8592 151.944 19.8793 151.944 31.3596C151.944 44.8699 145.294 48.9988 140.115 48.9988H140.046ZM140.255 43.8199C144.314 43.8199 145.225 36.6097 145.225 31.4307C145.225 26.3195 144.315 19.0405 140.116 19.0405C135.775 19.0405 134.936 26.3195 134.936 31.4307C134.936 37.0997 135.916 43.8199 140.186 43.8199H140.255ZM155.911 0H162.49V18.2693H162.63C164.38 15.1904 166.76 13.8592 169.77 13.8592C175.579 13.8592 179.22 20.4393 179.22 30.8696C179.22 43.0487 174.25 48.9988 168.65 48.9988C165.29 48.9988 163.4 47.1776 161.929 44.1676H161.651L161.3 48.4377H155.631C155.771 46.1288 155.911 42.2787 155.911 39.6875V0ZM162.49 36.3974C162.49 37.1697 162.56 37.9397 162.77 38.4986C163.819 42.6298 165.85 43.4687 167.179 43.4687C171.099 43.4687 172.569 38.2897 172.569 31.2896C172.569 24.7794 171.03 19.5293 167.109 19.5293C164.939 19.5293 163.189 22.1194 162.699 24.5694C162.559 25.2694 162.489 26.1806 162.489 26.8795V36.3974H162.49ZM188.93 32.7584C189 41.5087 192.779 43.6775 196.769 43.6775C199.149 43.6775 201.179 43.1187 202.649 42.4175L203.629 47.1776C201.599 48.2276 198.519 48.7888 195.509 48.7888C186.97 48.7888 182.49 42.3487 182.49 31.8484C182.49 20.7182 187.598 13.858 194.669 13.858C201.739 13.858 205.029 20.6482 205.029 29.1895C205.029 30.8684 204.958 31.9196 204.889 32.8284L188.93 32.7584ZM198.799 28.0695C198.869 22.0494 196.769 18.8304 194.18 18.8304C190.749 18.8304 189.209 23.8006 189 28.0695H198.799Z" fill="#D2D1DA"/>
<path fill-rule="evenodd" clip-rule="evenodd" d="M34.4292 1.38489H54.0845V48.4377L34.4292 1.38489ZM20.5829 1.38489H0.913574V48.4377L20.5829 1.38489ZM27.5072 18.7255L40.0305 48.4377H31.824L28.0789 38.9746H18.9122L27.5072 18.7255Z" fill="#D2D1DA"/>
<path fill-rule="evenodd" clip-rule="evenodd" d="M204.47 13.7717C204.668 13.7726 204.863 13.8125 205.044 13.8892C205.226 13.9659 205.391 14.0779 205.529 14.2186C205.667 14.3592 205.776 14.5259 205.849 14.7089C205.923 14.8919 205.959 15.0877 205.957 15.2849C205.957 16.1389 205.298 16.8051 204.463 16.8051C203.636 16.8051 202.963 16.1401 202.963 15.2849C202.962 15.0869 203 14.8907 203.075 14.7075C203.15 14.5243 203.26 14.3576 203.399 14.217C203.539 14.0765 203.704 13.9648 203.887 13.8884C204.07 13.8119 204.265 13.7723 204.463 13.7717H204.47ZM204.463 14.0062C203.798 14.0062 203.252 14.579 203.252 15.2849C203.252 16.0047 203.798 16.5694 204.47 16.5694C205.142 16.5764 205.68 16.0047 205.68 15.2919C205.68 14.579 205.142 14.0062 204.47 14.0062H204.463ZM204.181 16.1669H203.913V14.4775C204.054 14.4577 204.189 14.4367 204.391 14.4367C204.647 14.4367 204.813 14.4915 204.915 14.565C205.016 14.6385 205.07 14.7529 205.07 14.915C205.07 15.1367 204.922 15.272 204.74 15.3257V15.3386C204.888 15.3654 204.99 15.5007 205.022 15.7492C205.063 16.0117 205.103 16.1121 205.131 16.1669H204.848C204.808 16.1121 204.768 15.9581 204.734 15.7364C204.693 15.5206 204.586 15.4401 204.37 15.4401H204.182V16.1669H204.181ZM204.181 15.2312H204.376C204.598 15.2312 204.788 15.1507 204.788 14.9419C204.788 14.7937 204.679 14.6455 204.376 14.6455C204.29 14.6455 204.228 14.6525 204.181 14.6595V15.2312ZM56.6758 1.38489C56.8731 1.38579 57.0681 1.42575 57.2498 1.50245C57.4315 1.57914 57.5962 1.69107 57.7344 1.83175C57.8725 1.97244 57.9815 2.13911 58.0549 2.32213C58.1284 2.50515 58.1648 2.7009 58.1622 2.89809C58.1622 3.75211 57.503 4.41829 56.6689 4.41829C55.8417 4.41829 55.1685 3.75327 55.1685 2.89809C55.1674 2.70015 55.2054 2.50394 55.2802 2.3207C55.3551 2.13747 55.4654 1.97079 55.6048 1.83023C55.7441 1.68967 55.9098 1.57798 56.0924 1.50156C56.275 1.42514 56.4709 1.3855 56.6689 1.38489H56.6758ZM56.6689 1.61939C56.0027 1.61939 55.4578 2.19224 55.4578 2.89809C55.4578 3.61794 56.0027 4.18262 56.6758 4.18262C57.3479 4.18962 57.8869 3.61794 57.8869 2.90509C57.8869 2.19224 57.3479 1.61939 56.6758 1.61939H56.6689ZM56.3865 3.78011H56.117V2.09073C56.2751 2.0645 56.4351 2.05123 56.5954 2.05107C56.8509 2.05107 57.0189 2.10357 57.1192 2.17824C57.2207 2.25174 57.2744 2.36724 57.2744 2.52824C57.2744 2.74992 57.1262 2.88526 56.9442 2.93893V2.95175C57.0924 2.97859 57.1939 3.11393 57.2277 3.3636C57.2674 3.62611 57.3082 3.72644 57.335 3.78128H57.0527C57.0119 3.72644 56.971 3.57244 56.9384 3.35077C56.8975 3.13493 56.7902 3.05443 56.5743 3.05443H56.3865V3.78011ZM56.3865 2.84442H56.5813C56.803 2.84442 56.992 2.76392 56.992 2.55508C56.992 2.40691 56.8847 2.25874 56.5813 2.25874C56.4938 2.25874 56.4332 2.26574 56.3865 2.27274V2.84442Z" fill="#D2D1DA"/>
</svg>
