<svg width="144" height="49" viewBox="0 0 144 49" fill="none" xmlns="http://www.w3.org/2000/svg">
<g clip-path="url(#clip0_1173_819)">
<path d="M33.3187 26.0368C33.2596 19.8364 38.3842 16.8574 38.6147 16.7155C35.7303 12.5012 31.2499 11.9219 29.654 11.8569C25.8416 11.4668 22.2124 14.103 20.2737 14.103C18.335 14.103 15.3501 11.9101 12.1878 11.9751C8.02666 12.0342 4.19059 14.3926 2.045 18.1164C-2.26984 25.5994 0.945599 36.7116 5.15995 42.7937C7.2228 45.7668 9.66985 49.1182 12.8971 48.9941C16.0062 48.87 17.1765 46.9844 20.9239 46.9844C24.6713 46.9844 25.7293 48.9941 29.0098 48.935C32.3493 48.87 34.4654 45.8968 36.5105 42.9119C38.863 39.4541 39.8382 36.1146 39.8974 35.9372C39.8205 35.9077 33.3896 33.4429 33.3187 26.0368Z" fill="#D2D1DA"/>
<path d="M27.154 7.82581C28.8681 5.75115 30.0207 2.87262 29.7074 0C27.2426 0.100483 24.2577 1.64318 22.4904 3.71785C20.9063 5.55018 19.5173 8.48191 19.8956 11.2954C22.6322 11.5082 25.4458 9.89457 27.154 7.82581ZM54.9344 32.1308L52.0973 40.7309H48.4503L57.7361 13.3996H61.9918L71.3131 40.7309H67.542L64.6221 32.1308H54.9344ZM63.8951 29.3704L61.2234 21.5033C60.6146 19.7182 60.2127 18.0987 59.8049 16.5146H59.728C59.3202 18.1341 58.8769 19.7951 58.3508 21.4619L55.6792 29.3645L63.8951 29.3704ZM74.0793 27.5086C74.0793 24.9965 74.0025 22.9632 73.9138 21.1013H77.1174L77.2829 24.4704H77.3598C78.8197 22.0766 81.1308 20.658 84.3344 20.658C89.0807 20.658 92.6449 24.6714 92.6449 30.6353C92.6449 37.6928 88.3478 41.1742 83.7256 41.1742C81.1308 41.1742 78.8611 40.0393 77.6848 38.0947H77.608V48.7577H74.0793V27.5086V27.5086ZM77.6021 32.7396C77.6021 33.2715 77.6789 33.7503 77.7676 34.1995C78.4178 36.6702 80.5634 38.3784 83.1227 38.3784C86.8938 38.3784 89.0867 35.2989 89.0867 30.7949C89.0867 26.8584 87.0179 23.5011 83.2469 23.5011C80.8175 23.5011 78.5478 25.2448 77.8503 27.9223C77.7262 28.3656 77.608 28.8976 77.608 29.3823L77.6021 32.7396ZM96.3332 27.5086C96.3332 24.9965 96.2564 22.9632 96.1677 21.1013H99.3713L99.5368 24.4704H99.6137C101.074 22.0766 103.385 20.658 106.588 20.658C111.335 20.658 114.899 24.6714 114.899 30.6353C114.899 37.6928 110.602 41.1742 105.98 41.1742C103.385 41.1742 101.115 40.0393 99.9388 38.0947H99.8619V48.7577H96.3332V27.5086V27.5086ZM99.8619 32.7396C99.8619 33.2715 99.9388 33.7503 100.027 34.1995C100.678 36.6702 102.823 38.3784 105.383 38.3784C109.154 38.3784 111.346 35.2989 111.346 30.7949C111.346 26.8584 109.278 23.5011 105.507 23.5011C103.077 23.5011 100.808 25.2448 100.11 27.9223C99.9861 28.3656 99.8678 28.8976 99.8678 29.3823L99.8619 32.7396ZM118.593 11.9397H122.163V40.725H118.593V11.9397ZM129.339 31.5633C129.416 36.3865 132.501 38.3784 136.065 38.3784C138.619 38.3784 140.161 37.9351 141.497 37.3677L142.106 39.9211C140.853 40.4885 138.701 41.1387 135.581 41.1387C129.54 41.1387 125.928 37.1667 125.928 31.2441C125.928 25.3216 129.416 20.658 135.131 20.658C141.539 20.658 143.241 26.291 143.241 29.9024C143.241 30.6353 143.164 31.1969 143.117 31.5633H129.339ZM139.801 29.0099C139.842 26.7402 138.867 23.2115 134.853 23.2115C131.242 23.2115 129.664 26.5392 129.38 29.0099H139.801V29.0099Z" fill="#D2D1DA"/>
</g>
<defs>
<clipPath id="clip0_1173_819">
<rect width="143.247" height="49" fill="white"/>
</clipPath>
</defs>
</svg>
