<svg width="152" height="49" viewBox="0 0 152 49" fill="none" xmlns="http://www.w3.org/2000/svg">
<g clip-path="url(#clip0_1173_810)">
<path d="M19.463 0.00537109H20.798C25.4326 0.106124 29.9917 1.97006 33.2662 5.26973C32.0572 6.50396 30.8229 7.68781 29.6391 8.92204C27.8003 7.25961 25.5837 5.975 23.1657 5.52161C19.5889 4.76596 15.7351 5.44605 12.7377 7.4863C9.46321 9.62731 7.24663 13.2544 6.76805 17.1334C6.2391 20.9621 7.3222 24.9922 9.81584 27.9644C12.2087 30.8611 15.861 32.6746 19.6393 32.8006C23.1657 33.0021 26.8432 31.919 29.4124 29.4505C31.4274 27.7125 32.3594 25.0678 32.6617 22.4985C28.4804 22.4985 24.2991 22.5237 20.1179 22.4985V17.3098H37.7245C38.6313 22.8764 37.3215 29.1483 33.0899 33.128C30.2688 35.9491 26.3646 37.6115 22.3848 37.939C18.531 38.3168 14.5513 37.5864 11.1256 35.7224C7.01994 33.531 3.74545 29.8284 2.1334 25.4708C0.622095 21.4658 0.596907 16.9319 2.00745 12.9018C3.29206 9.2243 5.76052 5.975 8.93425 3.70806C11.982 1.46629 15.6847 0.232066 19.463 0.00537109Z" fill="#D2D1DA"/>
<path d="M120.469 1.31409H125.859V37.283C124.07 37.283 122.257 37.3082 120.469 37.2579C120.494 25.2934 120.469 13.3037 120.469 1.31409Z" fill="#D2D1DA"/>
<path d="M49.7145 13.7824C53.0393 13.1527 56.6413 13.858 59.3868 15.8478C61.8804 17.611 63.6184 20.3817 64.1474 23.4043C64.8275 26.9055 63.9711 30.7341 61.7041 33.5048C59.2609 36.603 55.2559 38.2654 51.3517 38.0136C47.775 37.812 44.299 36.0237 42.1831 33.1018C39.7902 29.8777 39.2109 25.4446 40.5207 21.6663C41.8305 17.611 45.5332 14.5129 49.7145 13.7824ZM50.4701 18.5682C49.1099 18.9208 47.8505 19.7017 46.9437 20.8099C44.5005 23.7318 44.6516 28.4924 47.3468 31.2127C48.8832 32.7744 51.2006 33.5048 53.3416 33.0766C55.3315 32.724 57.0695 31.389 58.0266 29.6258C59.6891 26.6284 59.2105 22.4976 56.6664 20.155C55.0292 18.6437 52.6363 18.014 50.4701 18.5682Z" fill="#D2D1DA"/>
<path d="M76.414 13.7824C80.2175 13.052 84.3736 14.1099 87.2198 16.7798C91.8545 20.9359 92.3583 28.7191 88.4037 33.5049C86.0108 36.5275 82.1318 38.1899 78.3032 38.0136C74.6509 37.9129 71.0489 36.0993 68.8827 33.1019C66.4395 29.8022 65.9105 25.2683 67.2959 21.4145C68.6812 17.4851 72.3083 14.4877 76.414 13.7824ZM77.1697 18.5682C75.8095 18.9208 74.5501 19.7017 73.6433 20.7848C71.2252 23.6563 71.326 28.3413 73.9204 31.0868C75.4569 32.7241 77.8498 33.5301 80.0663 33.0767C82.031 32.6989 83.7942 31.3891 84.7514 29.6259C86.3886 26.6033 85.91 22.4724 83.3408 20.1299C81.7036 18.6186 79.3107 18.0141 77.1697 18.5682Z" fill="#D2D1DA"/>
<path d="M99.0584 15.2433C101.955 13.4297 105.809 12.9259 108.932 14.4876C109.915 14.9158 110.721 15.6463 111.501 16.3768C111.527 15.6967 111.501 14.9914 111.527 14.2861C113.214 14.3113 114.902 14.2861 116.615 14.3113V36.5274C116.589 39.8775 115.733 43.429 113.315 45.8723C110.67 48.5675 106.615 49.3987 102.963 48.8445C99.0584 48.2652 95.658 45.4189 94.1467 41.817C95.658 41.0865 97.2448 40.5072 98.8065 39.8271C99.6881 41.8925 101.476 43.6557 103.718 44.0587C105.96 44.4618 108.554 43.9076 110.015 42.0437C111.577 40.1294 111.577 37.5098 111.501 35.1673C110.343 36.3007 109.008 37.3083 107.396 37.6861C103.895 38.6684 100.041 37.4594 97.3456 35.0917C94.6252 32.724 93.0132 29.0717 93.1643 25.4446C93.2399 21.3389 95.5572 17.3843 99.0584 15.2433ZM104.272 18.4674C102.736 18.7193 101.3 19.5757 100.318 20.7595C97.9501 23.5806 97.9501 28.0893 100.343 30.8601C101.703 32.4973 103.895 33.4041 106.01 33.1774C108 32.9759 109.839 31.7165 110.821 29.9785C112.484 27.0314 112.207 23.0265 109.965 20.4573C108.58 18.8704 106.363 18.0896 104.272 18.4674Z" fill="#D2D1DA"/>
<path d="M132.332 16.5279C135.355 13.7068 140.015 12.7496 143.894 14.2357C147.571 15.6211 149.914 19.1223 151.098 22.7242C145.632 24.9912 140.191 27.2329 134.725 29.4999C135.481 30.9356 136.639 32.2454 138.201 32.7744C140.393 33.5552 143.012 33.2781 144.851 31.8172C145.581 31.2631 146.161 30.5326 146.715 29.8273C148.1 30.7593 149.486 31.6661 150.871 32.598C148.906 35.5451 145.607 37.6105 142.055 37.938C138.126 38.4166 133.944 36.9053 131.4 33.8323C127.219 28.9961 127.622 20.8854 132.332 16.5279ZM135.027 21.1877C134.171 22.4219 133.818 23.9332 133.844 25.4194C137.496 23.9081 141.148 22.3968 144.801 20.8603C144.196 19.4497 142.735 18.5933 141.249 18.3666C138.856 17.9384 136.362 19.223 135.027 21.1877Z" fill="#D2D1DA"/>
</g>
<defs>
<clipPath id="clip0_1173_810">
<rect width="150.123" height="49" fill="white" transform="translate(0.974976)"/>
</clipPath>
</defs>
</svg>
