<svg width="219" height="94" viewBox="0 0 219 94" fill="none" xmlns="http://www.w3.org/2000/svg">
<path d="M1.494 17V4.4H7.218C8.586 4.4 9.792 4.664 10.836 5.192C11.88 5.708 12.696 6.434 13.284 7.37C13.872 8.306 14.166 9.416 14.166 10.7C14.166 11.972 13.872 13.082 13.284 14.03C12.696 14.966 11.88 15.698 10.836 16.226C9.792 16.742 8.586 17 7.218 17H1.494ZM4.41 14.606H7.074C7.914 14.606 8.64 14.45 9.252 14.138C9.876 13.814 10.356 13.358 10.692 12.77C11.04 12.182 11.214 11.492 11.214 10.7C11.214 9.896 11.04 9.206 10.692 8.63C10.356 8.042 9.876 7.592 9.252 7.28C8.64 6.956 7.914 6.794 7.074 6.794H4.41V14.606ZM20.7751 17.144C19.7431 17.144 18.8251 16.928 18.0211 16.496C17.2291 16.064 16.5991 15.476 16.1311 14.732C15.6751 13.976 15.4471 13.118 15.4471 12.158C15.4471 11.186 15.6751 10.328 16.1311 9.584C16.5991 8.828 17.2291 8.24 18.0211 7.82C18.8251 7.388 19.7431 7.172 20.7751 7.172C21.7951 7.172 22.7071 7.388 23.5111 7.82C24.3151 8.24 24.9451 8.822 25.4011 9.566C25.8571 10.31 26.0851 11.174 26.0851 12.158C26.0851 13.118 25.8571 13.976 25.4011 14.732C24.9451 15.476 24.3151 16.064 23.5111 16.496C22.7071 16.928 21.7951 17.144 20.7751 17.144ZM20.7751 14.84C21.2431 14.84 21.6631 14.732 22.0351 14.516C22.4071 14.3 22.7011 13.994 22.9171 13.598C23.1331 13.19 23.2411 12.71 23.2411 12.158C23.2411 11.594 23.1331 11.114 22.9171 10.718C22.7011 10.322 22.4071 10.016 22.0351 9.8C21.6631 9.584 21.2431 9.476 20.7751 9.476C20.3071 9.476 19.8871 9.584 19.5151 9.8C19.1431 10.016 18.8431 10.322 18.6151 10.718C18.3991 11.114 18.2911 11.594 18.2911 12.158C18.2911 12.71 18.3991 13.19 18.6151 13.598C18.8431 13.994 19.1431 14.3 19.5151 14.516C19.8871 14.732 20.3071 14.84 20.7751 14.84ZM29.9123 17L26.4203 7.316H29.0663L31.9643 15.65H30.7043L33.7283 7.316H36.1043L39.0383 15.65H37.7783L40.7663 7.316H43.2503L39.7403 17H37.0223L34.4483 9.854H35.2763L32.6123 17H29.9123ZM50.4418 7.172C51.2098 7.172 51.8938 7.328 52.4938 7.64C53.1058 7.94 53.5858 8.408 53.9338 9.044C54.2818 9.668 54.4558 10.472 54.4558 11.456V17H51.6478V11.888C51.6478 11.108 51.4738 10.532 51.1258 10.16C50.7898 9.788 50.3098 9.602 49.6858 9.602C49.2418 9.602 48.8398 9.698 48.4798 9.89C48.1318 10.07 47.8558 10.352 47.6518 10.736C47.4598 11.12 47.3638 11.612 47.3638 12.212V17H44.5558V7.316H47.2378V9.998L46.7338 9.188C47.0818 8.54 47.5798 8.042 48.2278 7.694C48.8758 7.346 49.6138 7.172 50.4418 7.172ZM57.0011 17V3.644H59.8091V17H57.0011ZM67.0231 17.144C65.9911 17.144 65.0731 16.928 64.2691 16.496C63.4771 16.064 62.8471 15.476 62.3791 14.732C61.9231 13.976 61.6951 13.118 61.6951 12.158C61.6951 11.186 61.9231 10.328 62.3791 9.584C62.8471 8.828 63.4771 8.24 64.2691 7.82C65.0731 7.388 65.9911 7.172 67.0231 7.172C68.0431 7.172 68.9551 7.388 69.7591 7.82C70.5631 8.24 71.1931 8.822 71.6491 9.566C72.1051 10.31 72.3331 11.174 72.3331 12.158C72.3331 13.118 72.1051 13.976 71.6491 14.732C71.1931 15.476 70.5631 16.064 69.7591 16.496C68.9551 16.928 68.0431 17.144 67.0231 17.144ZM67.0231 14.84C67.4911 14.84 67.9111 14.732 68.2831 14.516C68.6551 14.3 68.9491 13.994 69.1651 13.598C69.3811 13.19 69.4891 12.71 69.4891 12.158C69.4891 11.594 69.3811 11.114 69.1651 10.718C68.9491 10.322 68.6551 10.016 68.2831 9.8C67.9111 9.584 67.4911 9.476 67.0231 9.476C66.5551 9.476 66.1351 9.584 65.7631 9.8C65.3911 10.016 65.0911 10.322 64.8631 10.718C64.6471 11.114 64.5391 11.594 64.5391 12.158C64.5391 12.71 64.6471 13.19 64.8631 13.598C65.0911 13.994 65.3911 14.3 65.7631 14.516C66.1351 14.732 66.5551 14.84 67.0231 14.84ZM79.9919 17V15.11L79.8119 14.696V11.312C79.8119 10.712 79.6259 10.244 79.2539 9.908C78.8939 9.572 78.3359 9.404 77.5799 9.404C77.0639 9.404 76.5539 9.488 76.0499 9.656C75.5579 9.812 75.1379 10.028 74.7899 10.304L73.7819 8.342C74.3099 7.97 74.9459 7.682 75.6899 7.478C76.4339 7.274 77.1899 7.172 77.9579 7.172C79.4339 7.172 80.5799 7.52 81.3959 8.216C82.2119 8.912 82.6199 9.998 82.6199 11.474V17H79.9919ZM77.0399 17.144C76.2839 17.144 75.6359 17.018 75.0959 16.766C74.5559 16.502 74.1419 16.148 73.8539 15.704C73.5659 15.26 73.4219 14.762 73.4219 14.21C73.4219 13.634 73.5599 13.13 73.8359 12.698C74.1239 12.266 74.5739 11.93 75.1859 11.69C75.7979 11.438 76.5959 11.312 77.5799 11.312H80.1539V12.95H77.8859C77.2259 12.95 76.7699 13.058 76.5179 13.274C76.2779 13.49 76.1579 13.76 76.1579 14.084C76.1579 14.444 76.2959 14.732 76.5719 14.948C76.8599 15.152 77.2499 15.254 77.7419 15.254C78.2099 15.254 78.6299 15.146 79.0019 14.93C79.3739 14.702 79.6439 14.372 79.8119 13.94L80.2439 15.236C80.0399 15.86 79.6679 16.334 79.1279 16.658C78.5879 16.982 77.8919 17.144 77.0399 17.144ZM89.3895 17.144C88.4775 17.144 87.6555 16.94 86.9235 16.532C86.1915 16.112 85.6095 15.53 85.1775 14.786C84.7575 14.042 84.5475 13.166 84.5475 12.158C84.5475 11.138 84.7575 10.256 85.1775 9.512C85.6095 8.768 86.1915 8.192 86.9235 7.784C87.6555 7.376 88.4775 7.172 89.3895 7.172C90.2055 7.172 90.9195 7.352 91.5315 7.712C92.1435 8.072 92.6175 8.618 92.9535 9.35C93.2895 10.082 93.4575 11.018 93.4575 12.158C93.4575 13.286 93.2955 14.222 92.9715 14.966C92.6475 15.698 92.1795 16.244 91.5675 16.604C90.9675 16.964 90.2415 17.144 89.3895 17.144ZM89.8755 14.84C90.3315 14.84 90.7455 14.732 91.1175 14.516C91.4895 14.3 91.7835 13.994 91.9995 13.598C92.2275 13.19 92.3415 12.71 92.3415 12.158C92.3415 11.594 92.2275 11.114 91.9995 10.718C91.7835 10.322 91.4895 10.016 91.1175 9.8C90.7455 9.584 90.3315 9.476 89.8755 9.476C89.4075 9.476 88.9875 9.584 88.6155 9.8C88.2435 10.016 87.9435 10.322 87.7155 10.718C87.4995 11.114 87.3915 11.594 87.3915 12.158C87.3915 12.71 87.4995 13.19 87.7155 13.598C87.9435 13.994 88.2435 14.3 88.6155 14.516C88.9875 14.732 89.4075 14.84 89.8755 14.84ZM92.4135 17V15.02L92.4675 12.14L92.2875 9.278V3.644H95.0955V17H92.4135ZM102.99 17V4.4H105.402L110.766 13.292H109.488L114.762 4.4H117.156L117.192 17H114.456L114.438 8.594H114.942L110.73 15.668H109.416L105.114 8.594H105.726V17H102.99ZM124.592 17.144C123.56 17.144 122.642 16.928 121.838 16.496C121.046 16.064 120.416 15.476 119.948 14.732C119.492 13.976 119.264 13.118 119.264 12.158C119.264 11.186 119.492 10.328 119.948 9.584C120.416 8.828 121.046 8.24 121.838 7.82C122.642 7.388 123.56 7.172 124.592 7.172C125.612 7.172 126.524 7.388 127.328 7.82C128.132 8.24 128.762 8.822 129.218 9.566C129.674 10.31 129.902 11.174 129.902 12.158C129.902 13.118 129.674 13.976 129.218 14.732C128.762 15.476 128.132 16.064 127.328 16.496C126.524 16.928 125.612 17.144 124.592 17.144ZM124.592 14.84C125.06 14.84 125.48 14.732 125.852 14.516C126.224 14.3 126.518 13.994 126.734 13.598C126.95 13.19 127.058 12.71 127.058 12.158C127.058 11.594 126.95 11.114 126.734 10.718C126.518 10.322 126.224 10.016 125.852 9.8C125.48 9.584 125.06 9.476 124.592 9.476C124.124 9.476 123.704 9.584 123.332 9.8C122.96 10.016 122.66 10.322 122.432 10.718C122.216 11.114 122.108 11.594 122.108 12.158C122.108 12.71 122.216 13.19 122.432 13.598C122.66 13.994 122.96 14.3 123.332 14.516C123.704 14.732 124.124 14.84 124.592 14.84ZM137.502 17.144C136.65 17.144 135.918 16.964 135.306 16.604C134.694 16.244 134.226 15.698 133.902 14.966C133.578 14.222 133.416 13.286 133.416 12.158C133.416 11.018 133.584 10.082 133.92 9.35C134.268 8.618 134.748 8.072 135.36 7.712C135.972 7.352 136.686 7.172 137.502 7.172C138.414 7.172 139.23 7.376 139.95 7.784C140.682 8.192 141.258 8.768 141.678 9.512C142.11 10.256 142.326 11.138 142.326 12.158C142.326 13.166 142.11 14.042 141.678 14.786C141.258 15.53 140.682 16.112 139.95 16.532C139.23 16.94 138.414 17.144 137.502 17.144ZM131.778 17V3.644H134.586V9.278L134.406 12.14L134.46 15.02V17H131.778ZM137.016 14.84C137.484 14.84 137.898 14.732 138.258 14.516C138.63 14.3 138.924 13.994 139.14 13.598C139.368 13.19 139.482 12.71 139.482 12.158C139.482 11.594 139.368 11.114 139.14 10.718C138.924 10.322 138.63 10.016 138.258 9.8C137.898 9.584 137.484 9.476 137.016 9.476C136.548 9.476 136.128 9.584 135.756 9.8C135.384 10.016 135.09 10.322 134.874 10.718C134.658 11.114 134.55 11.594 134.55 12.158C134.55 12.71 134.658 13.19 134.874 13.598C135.09 13.994 135.384 14.3 135.756 14.516C136.128 14.732 136.548 14.84 137.016 14.84ZM144.206 17V7.316H147.014V17H144.206ZM145.61 5.966C145.094 5.966 144.674 5.816 144.35 5.516C144.026 5.216 143.864 4.844 143.864 4.4C143.864 3.956 144.026 3.584 144.35 3.284C144.674 2.984 145.094 2.834 145.61 2.834C146.126 2.834 146.546 2.978 146.87 3.266C147.194 3.542 147.356 3.902 147.356 4.346C147.356 4.814 147.194 5.204 146.87 5.516C146.558 5.816 146.138 5.966 145.61 5.966ZM149.62 17V3.644H152.428V17H149.62ZM159.84 17.144C158.736 17.144 157.764 16.928 156.924 16.496C156.096 16.064 155.454 15.476 154.998 14.732C154.542 13.976 154.314 13.118 154.314 12.158C154.314 11.186 154.536 10.328 154.98 9.584C155.436 8.828 156.054 8.24 156.834 7.82C157.614 7.388 158.496 7.172 159.48 7.172C160.428 7.172 161.28 7.376 162.036 7.784C162.804 8.18 163.41 8.756 163.854 9.512C164.298 10.256 164.52 11.15 164.52 12.194C164.52 12.302 164.514 12.428 164.502 12.572C164.49 12.704 164.478 12.83 164.466 12.95H156.6V11.312H162.99L161.91 11.798C161.91 11.294 161.808 10.856 161.604 10.484C161.4 10.112 161.118 9.824 160.758 9.62C160.398 9.404 159.978 9.296 159.498 9.296C159.018 9.296 158.592 9.404 158.22 9.62C157.86 9.824 157.578 10.118 157.374 10.502C157.17 10.874 157.068 11.318 157.068 11.834V12.266C157.068 12.794 157.182 13.262 157.41 13.67C157.65 14.066 157.98 14.372 158.4 14.588C158.832 14.792 159.336 14.894 159.912 14.894C160.428 14.894 160.878 14.816 161.262 14.66C161.658 14.504 162.018 14.27 162.342 13.958L163.836 15.578C163.392 16.082 162.834 16.472 162.162 16.748C161.49 17.012 160.716 17.144 159.84 17.144ZM170.029 17L175.645 4.4H178.525L184.159 17H181.099L176.491 5.876H177.643L173.017 17H170.029ZM172.837 14.3L173.611 12.086H180.091L180.883 14.3H172.837ZM190.993 17.144C190.177 17.144 189.463 16.964 188.851 16.604C188.239 16.244 187.759 15.698 187.411 14.966C187.075 14.222 186.907 13.286 186.907 12.158C186.907 11.018 187.069 10.082 187.393 9.35C187.717 8.618 188.185 8.072 188.797 7.712C189.409 7.352 190.141 7.172 190.993 7.172C191.905 7.172 192.721 7.382 193.441 7.802C194.173 8.21 194.749 8.786 195.169 9.53C195.601 10.274 195.817 11.15 195.817 12.158C195.817 13.178 195.601 14.06 195.169 14.804C194.749 15.548 194.173 16.124 193.441 16.532C192.721 16.94 191.905 17.144 190.993 17.144ZM185.269 20.492V7.316H187.951V9.296L187.897 12.176L188.077 15.038V20.492H185.269ZM190.507 14.84C190.975 14.84 191.389 14.732 191.749 14.516C192.121 14.3 192.415 13.994 192.631 13.598C192.859 13.19 192.973 12.71 192.973 12.158C192.973 11.594 192.859 11.114 192.631 10.718C192.415 10.322 192.121 10.016 191.749 9.8C191.389 9.584 190.975 9.476 190.507 9.476C190.039 9.476 189.619 9.584 189.247 9.8C188.875 10.016 188.581 10.322 188.365 10.718C188.149 11.114 188.041 11.594 188.041 12.158C188.041 12.71 188.149 13.19 188.365 13.598C188.581 13.994 188.875 14.3 189.247 14.516C189.619 14.732 190.039 14.84 190.507 14.84ZM203.42 17.144C202.604 17.144 201.89 16.964 201.278 16.604C200.666 16.244 200.186 15.698 199.838 14.966C199.502 14.222 199.334 13.286 199.334 12.158C199.334 11.018 199.496 10.082 199.82 9.35C200.144 8.618 200.612 8.072 201.224 7.712C201.836 7.352 202.568 7.172 203.42 7.172C204.332 7.172 205.148 7.382 205.868 7.802C206.6 8.21 207.176 8.786 207.596 9.53C208.028 10.274 208.244 11.15 208.244 12.158C208.244 13.178 208.028 14.06 207.596 14.804C207.176 15.548 206.6 16.124 205.868 16.532C205.148 16.94 204.332 17.144 203.42 17.144ZM197.696 20.492V7.316H200.378V9.296L200.324 12.176L200.504 15.038V20.492H197.696ZM202.934 14.84C203.402 14.84 203.816 14.732 204.176 14.516C204.548 14.3 204.842 13.994 205.058 13.598C205.286 13.19 205.4 12.71 205.4 12.158C205.4 11.594 205.286 11.114 205.058 10.718C204.842 10.322 204.548 10.016 204.176 9.8C203.816 9.584 203.402 9.476 202.934 9.476C202.466 9.476 202.046 9.584 201.674 9.8C201.302 10.016 201.008 10.322 200.792 10.718C200.576 11.114 200.468 11.594 200.468 12.158C200.468 12.71 200.576 13.19 200.792 13.598C201.008 13.994 201.302 14.3 201.674 14.516C202.046 14.732 202.466 14.84 202.934 14.84ZM213.382 17.144C212.554 17.144 211.756 17.048 210.988 16.856C210.232 16.652 209.632 16.4 209.188 16.1L210.124 14.084C210.568 14.36 211.09 14.588 211.69 14.768C212.302 14.936 212.902 15.02 213.49 15.02C214.138 15.02 214.594 14.942 214.858 14.786C215.134 14.63 215.272 14.414 215.272 14.138C215.272 13.91 215.164 13.742 214.948 13.634C214.744 13.514 214.468 13.424 214.12 13.364C213.772 13.304 213.388 13.244 212.968 13.184C212.56 13.124 212.146 13.046 211.726 12.95C211.306 12.842 210.922 12.686 210.574 12.482C210.226 12.278 209.944 12.002 209.728 11.654C209.524 11.306 209.422 10.856 209.422 10.304C209.422 9.692 209.596 9.152 209.944 8.684C210.304 8.216 210.82 7.85 211.492 7.586C212.164 7.31 212.968 7.172 213.904 7.172C214.564 7.172 215.236 7.244 215.92 7.388C216.604 7.532 217.174 7.742 217.63 8.018L216.694 10.016C216.226 9.74 215.752 9.554 215.272 9.458C214.804 9.35 214.348 9.296 213.904 9.296C213.28 9.296 212.824 9.38 212.536 9.548C212.248 9.716 212.104 9.932 212.104 10.196C212.104 10.436 212.206 10.616 212.41 10.736C212.626 10.856 212.908 10.952 213.256 11.024C213.604 11.096 213.982 11.162 214.39 11.222C214.81 11.27 215.23 11.348 215.65 11.456C216.07 11.564 216.448 11.72 216.784 11.924C217.132 12.116 217.414 12.386 217.63 12.734C217.846 13.07 217.954 13.514 217.954 14.066C217.954 14.666 217.774 15.2 217.414 15.668C217.054 16.124 216.532 16.484 215.848 16.748C215.176 17.012 214.354 17.144 213.382 17.144Z" fill="black"/>
<path d="M169.481 42H6.51852C2.91844 42 0 44.9101 0 48.5V87.4998C0 91.0896 2.91844 93.9997 6.51852 93.9997H169.481C173.082 93.9997 176 91.0896 176 87.4998V48.5C176 44.9101 173.082 42 169.481 42Z" fill="black"/>
<path d="M169.481 43.04C170.933 43.0417 172.325 43.6175 173.351 44.6411C174.378 45.6648 174.955 47.0526 174.957 48.5002V87.5C174.955 88.9476 174.378 90.3355 173.351 91.3591C172.325 92.3827 170.933 92.9586 169.481 92.9603H6.51852C5.06678 92.9586 3.67498 92.3828 2.64847 91.3591C1.62196 90.3355 1.04457 88.9476 1.04296 87.5V48.5002C1.04454 47.0526 1.62193 45.6647 2.64845 44.6411C3.67496 43.6174 5.06677 43.0416 6.51852 43.04H169.481ZM169.481 42.0002H6.51852C4.79125 42.0053 3.13618 42.6917 1.91481 43.9096C0.69345 45.1275 0.00505589 46.7779 0 48.5002L0 87.5C0.00505589 89.2224 0.69345 90.8727 1.91481 92.0906C3.13618 93.3085 4.79125 93.9949 6.51852 94H169.481C171.209 93.9949 172.864 93.3085 174.085 92.0906C175.307 90.8727 175.995 89.2224 176 87.5V48.5002C175.995 46.7779 175.307 45.1275 174.085 43.9096C172.864 42.6917 171.209 42.0053 169.481 42.0002V42.0002Z" fill="#A6A6A6"/>
<path d="M61.8196 55.3162C61.8433 55.7932 61.7694 56.27 61.6024 56.7177C61.4353 57.1653 61.1787 57.5744 60.8481 57.9199C60.4775 58.3031 60.0301 58.604 59.5349 58.8028C59.0397 59.0017 58.508 59.0941 57.9746 59.0739C57.4377 59.0787 56.9054 58.9765 56.4087 58.7732C55.9121 58.5698 55.4612 58.2696 55.0826 57.89C54.704 57.5105 54.4053 57.0593 54.2041 56.563C54.0028 56.0667 53.9031 55.5353 53.9108 55C53.9032 54.4647 54.0029 53.9333 54.2042 53.437C54.4054 52.9407 54.7041 52.4895 55.0827 52.1099C55.4613 51.7303 55.9121 51.43 56.4087 51.2266C56.9054 51.0232 57.4377 50.9208 57.9746 50.9254C58.5266 50.9238 59.073 51.0351 59.5801 51.2524C60.0511 51.4428 60.4703 51.7414 60.8036 52.1239L60.116 52.81C59.854 52.5025 59.5247 52.2592 59.1534 52.0987C58.7821 51.9382 58.3788 51.865 57.9746 51.8846C57.5677 51.8825 57.1646 51.9623 56.7894 52.1192C56.4142 52.2761 56.0746 52.5069 55.791 52.7978C55.5074 53.0887 55.2856 53.4337 55.1388 53.8121C54.9921 54.1905 54.9234 54.5945 54.937 55C54.9273 55.6074 55.0986 56.2039 55.4294 56.714C55.7601 57.2241 56.2354 57.6248 56.7948 57.8652C57.3542 58.1056 57.9726 58.175 58.5716 58.0645C59.1706 57.954 59.7232 57.6687 60.1593 57.2446C60.5607 56.8133 60.7934 56.2526 60.815 55.6646H57.9746V54.7277H61.7648C61.8007 54.9218 61.819 55.1188 61.8196 55.3162V55.3162Z" fill="white" stroke="white" stroke-width="0.2" stroke-miterlimit="10"/>
<path d="M67.8287 52.0586H64.2665V54.5316H67.4787V55.4686H64.2665V57.9416H67.8287V58.9001H63.262V51.1001H67.8287V52.0586Z" fill="white" stroke="white" stroke-width="0.2" stroke-miterlimit="10"/>
<path d="M72.067 58.9001H71.0612V52.0586H68.8765V51.1001H74.2518V52.0586H72.067V58.9001Z" fill="white" stroke="white" stroke-width="0.2" stroke-miterlimit="10"/>
<path d="M78.1414 58.9001V51.1001H79.1459V58.9001H78.1414Z" fill="white" stroke="white" stroke-width="0.2" stroke-miterlimit="10"/>
<path d="M83.6042 58.9001H82.5984V52.0586H80.4138V51.1001H85.789V52.0586H83.6042V58.9001Z" fill="white" stroke="white" stroke-width="0.2" stroke-miterlimit="10"/>
<path d="M95.9647 57.8921C95.2033 58.649 94.172 59.074 93.0969 59.074C92.0218 59.074 90.9905 58.649 90.2292 57.8921C89.8525 57.5117 89.5564 57.0596 89.3585 56.5628C89.1605 56.066 89.0648 55.5346 89.077 55.0001C89.0648 54.4657 89.1605 53.9342 89.3585 53.4374C89.5564 52.9406 89.8525 52.4886 90.2292 52.1081C90.6055 51.7328 91.0524 51.4351 91.5442 51.2322C92.036 51.0293 92.5632 50.9251 93.0954 50.9255C93.6277 50.926 94.1547 51.0312 94.6461 51.2349C95.1376 51.4387 95.5839 51.7372 95.9596 52.1132C96.3365 52.4926 96.6332 52.9437 96.832 53.4396C97.0308 53.9355 97.1277 54.4662 97.1169 55.0001C97.1287 55.5345 97.0328 56.0658 96.8349 56.5626C96.637 57.0594 96.3411 57.5115 95.9647 57.8921V57.8921ZM90.9714 57.239C91.5353 57.8003 92.2995 58.1156 93.0963 58.1156C93.8931 58.1156 94.6573 57.8003 95.2212 57.239C95.5103 56.9438 95.7365 56.5932 95.8859 56.2083C96.0354 55.8235 96.1051 55.4125 96.0908 55.0001C96.1051 54.5877 96.0354 54.1767 95.8859 53.7919C95.7365 53.4071 95.5103 53.0565 95.2212 52.7613C94.6573 52.1999 93.8931 51.8847 93.0963 51.8847C92.2995 51.8847 91.5353 52.1999 90.9714 52.7613C90.6826 53.0567 90.4568 53.4074 90.3076 53.7921C90.1584 54.1769 90.0888 54.5878 90.1031 55.0001C90.0888 55.4124 90.1584 55.8233 90.3076 56.2081C90.4568 56.5929 90.6826 56.9435 90.9714 57.239V57.239Z" fill="white" stroke="white" stroke-width="0.2" stroke-miterlimit="10"/>
<path d="M98.5276 58.9001V51.1001H99.7511L103.553 57.1678H103.596L103.553 55.6646V51.1001H104.559V58.9001H103.509L99.5321 52.5384H99.4888L99.5321 54.0416V58.9001H98.5276Z" fill="white" stroke="white" stroke-width="0.2" stroke-miterlimit="10"/>
<path d="M88.8289 70.2771C87.7331 70.2812 86.6631 70.609 85.754 71.2191C84.845 71.8292 84.1375 72.6941 83.7211 73.7048C83.3046 74.7155 83.1978 75.8265 83.4141 76.8977C83.6305 77.9689 84.1602 78.9521 84.9365 79.7232C85.7128 80.4944 86.7009 81.0189 87.7759 81.2306C88.8509 81.4422 89.9648 81.3315 90.9767 80.9124C91.9887 80.4932 92.8534 79.7845 93.4618 78.8757C94.0701 77.9669 94.3948 76.8988 94.3948 75.8061C94.4055 75.0753 94.2688 74.3497 93.9926 73.6727C93.7164 72.9956 93.3065 72.3809 92.7872 71.8651C92.268 71.3492 91.6499 70.9428 90.9699 70.67C90.2899 70.3972 89.5618 70.2636 88.8289 70.2771V70.2771ZM88.8289 79.1571C88.1541 79.2051 87.4804 79.0493 86.8955 78.7102C86.3107 78.371 85.8418 77.8642 85.5499 77.2556C85.2581 76.647 85.1567 75.9648 85.259 75.298C85.3614 74.6311 85.6627 74.0104 86.1237 73.5167C86.5848 73.023 87.1842 72.6792 87.844 72.53C88.5038 72.3807 89.1933 72.433 89.8229 72.68C90.4525 72.9271 90.9928 73.3574 91.3737 73.9149C91.7546 74.4725 91.9583 75.1315 91.9583 75.8061C91.9788 76.2323 91.9135 76.6583 91.7664 77.0589C91.6193 77.4596 91.3933 77.8269 91.1017 78.1391C90.8101 78.4514 90.4588 78.7023 90.0685 78.8771C89.6781 79.0519 89.2567 79.1471 88.8289 79.1571V79.1571ZM76.687 70.2771C75.5912 70.2812 74.5212 70.609 73.6121 71.219C72.703 71.8291 71.9955 72.694 71.5791 73.7047C71.1626 74.7154 71.0558 75.8265 71.2721 76.8976C71.4884 77.9688 72.0181 78.952 72.7944 79.7232C73.5707 80.4944 74.5588 81.0189 75.6338 81.2305C76.7089 81.4422 77.8227 81.3315 78.8347 80.9124C79.8466 80.4933 80.7114 79.7846 81.3197 78.8758C81.9281 77.9669 82.2527 76.8988 82.2527 75.8061C82.2635 75.0753 82.1267 74.3498 81.8506 73.6727C81.5744 72.9957 81.1645 72.381 80.6452 71.8651C80.126 71.3493 79.5079 70.9428 78.8279 70.67C78.1479 70.3972 77.4198 70.2636 76.687 70.2771V70.2771ZM76.687 79.1571C76.0121 79.2051 75.3385 79.0493 74.7536 78.7102C74.1688 78.371 73.6999 77.8642 73.408 77.2556C73.1161 76.647 73.0148 75.9648 73.1171 75.298C73.2194 74.6311 73.5208 74.0104 73.9818 73.5167C74.4429 73.023 75.0423 72.6792 75.7021 72.53C76.3619 72.3807 77.0514 72.433 77.681 72.68C78.3105 72.9271 78.8509 73.3574 79.2318 73.9149C79.6127 74.4725 79.8164 75.1315 79.8164 75.8061C79.8369 76.2323 79.7716 76.6583 79.6245 77.0589C79.4774 77.4596 79.2514 77.8269 78.9598 78.1391C78.6682 78.4514 78.3169 78.7023 77.9265 78.8771C77.5362 79.052 77.1147 79.1471 76.687 79.1571ZM62.2435 71.9736V74.3192H67.8725C67.7913 75.4194 67.3398 76.4599 66.5912 77.2722C66.0271 77.8456 65.3488 78.2946 64.5999 78.5904C63.851 78.8862 63.0483 79.0222 62.2435 78.9895C60.5982 78.9673 59.0278 78.3 57.8722 77.132C56.7166 75.9639 56.0687 74.3891 56.0687 72.7484C56.0687 71.1076 56.7166 69.5328 57.8722 68.3648C59.0278 67.1968 60.5982 66.5295 62.2435 66.5072C63.8239 66.4866 65.3485 67.0887 66.4863 68.1827L68.1455 66.5282C67.3692 65.7618 66.4473 65.1578 65.4338 64.7514C64.4204 64.345 63.3357 64.1444 62.2435 64.1615C61.1021 64.145 59.9688 64.3548 58.9094 64.7789C57.8501 65.203 56.8859 65.8329 56.0728 66.6319C55.2598 67.4309 54.6142 68.3831 54.1735 69.4331C53.7328 70.4832 53.5059 71.6101 53.5059 72.7484C53.5059 73.8867 53.7328 75.0136 54.1735 76.0636C54.6142 77.1137 55.2598 78.0659 56.0728 78.8649C56.8859 79.6639 57.8501 80.2937 58.9094 80.7178C59.9688 81.1419 61.1021 81.3518 62.2435 81.3352C63.3588 81.3813 64.4711 81.1905 65.5068 80.7752C66.5424 80.36 67.4776 79.7299 68.2504 78.9267C69.6225 77.4334 70.3538 75.4638 70.2879 73.4396C70.2932 72.948 70.251 72.4571 70.1617 71.9736H62.2435ZM121.312 73.7955C120.979 72.794 120.345 71.9191 119.495 71.2897C118.646 70.6602 117.623 70.3066 116.565 70.2771C115.853 70.2815 115.149 70.4299 114.495 70.7134C113.842 70.9968 113.253 71.4094 112.765 71.9262C112.276 72.443 111.897 73.0533 111.651 73.7202C111.406 74.387 111.298 75.0967 111.336 75.8061C111.32 76.533 111.451 77.2557 111.721 77.931C111.991 78.6063 112.395 79.2204 112.909 79.7365C113.423 80.2526 114.035 80.6601 114.71 80.9348C115.386 81.2095 116.109 81.3457 116.838 81.3352C117.752 81.3403 118.652 81.119 119.459 80.6913C120.265 80.2636 120.953 79.6429 121.459 78.8849L119.569 77.6283C119.286 78.0972 118.885 78.4847 118.406 78.7527C117.928 79.0208 117.387 79.1601 116.838 79.1571C116.274 79.1786 115.715 79.0304 115.236 78.7317C114.756 78.4329 114.378 77.9974 114.15 77.4817L121.564 74.4239L121.312 73.7955ZM113.751 75.6387C113.725 75.2362 113.78 74.8327 113.912 74.4515C114.044 74.0704 114.251 73.7194 114.521 73.4191C114.791 73.1188 115.118 72.8751 115.483 72.7024C115.849 72.5298 116.245 72.4315 116.649 72.4134C117.07 72.3858 117.489 72.4823 117.856 72.6908C118.222 72.8994 118.518 73.2108 118.708 73.5862L113.751 75.6387ZM107.723 81.0001H110.159V64.7481H107.723V81.0001ZM103.732 71.5127H103.648C103.278 71.1114 102.826 70.7936 102.322 70.5805C101.819 70.3674 101.276 70.264 100.729 70.2771C99.2991 70.3378 97.9481 70.9468 96.9579 71.9771C95.9677 73.0073 95.4149 74.3792 95.4149 75.8062C95.4149 77.2331 95.9677 78.605 96.9579 79.6352C97.9481 80.6655 99.2991 81.2745 100.729 81.3352C101.278 81.3498 101.823 81.2449 102.328 81.0279C102.832 80.8109 103.282 80.487 103.648 80.0787H103.732V80.8745C103.732 82.9899 102.598 84.1207 100.771 84.1207C100.162 84.1062 99.5709 83.9112 99.0735 83.5606C98.576 83.21 98.1945 82.7196 97.9775 82.152L95.8561 83.0317C96.2559 84.0024 96.9373 84.8319 97.8129 85.414C98.6885 85.9961 99.7185 86.3042 100.771 86.2989C103.627 86.2989 106.043 84.6234 106.043 80.5394V70.6121H103.732V71.5127ZM100.939 79.1571C100.097 79.0859 99.3123 78.702 98.7405 78.0814C98.1687 77.4609 97.8514 76.6489 97.8514 75.8062C97.8514 74.9634 98.1687 74.1514 98.7405 73.5309C99.3123 72.9103 100.097 72.5264 100.939 72.4552C101.358 72.4756 101.768 72.5799 102.146 72.7619C102.524 72.9439 102.861 73.1998 103.137 73.5145C103.414 73.8291 103.624 74.1961 103.755 74.5934C103.886 74.9907 103.935 75.4102 103.9 75.827C103.933 76.2412 103.882 76.6578 103.749 77.0518C103.617 77.4457 103.406 77.809 103.13 78.1199C102.853 78.4308 102.517 78.6829 102.14 78.8611C101.764 79.0393 101.355 79.14 100.939 79.1571V79.1571ZM132.725 64.7483H126.895V81.0001H129.328V74.8428H132.725C133.413 74.8804 134.101 74.7778 134.748 74.5411C135.395 74.3044 135.987 73.9388 136.487 73.4664C136.987 72.994 137.386 72.4249 137.658 71.7937C137.931 71.1626 138.071 70.4827 138.071 69.7956C138.071 69.1085 137.931 68.4286 137.658 67.7974C137.386 67.1663 136.987 66.5971 136.487 66.1248C135.987 65.6524 135.395 65.2867 134.748 65.05C134.101 64.8134 133.413 64.7107 132.725 64.7483V64.7483ZM132.787 72.5811H129.328V67.0102H132.787C133.159 67.0025 133.529 67.0689 133.874 67.2054C134.22 67.342 134.535 67.5459 134.8 67.8053C135.066 68.0647 135.277 68.3744 135.421 68.7162C135.565 69.0579 135.639 69.4249 135.639 69.7956C135.639 70.1664 135.565 70.5334 135.421 70.8751C135.277 71.2169 135.066 71.5265 134.8 71.786C134.535 72.0454 134.22 72.2493 133.874 72.3858C133.529 72.5224 133.159 72.5887 132.787 72.5811V72.5811ZM147.821 70.2472C146.933 70.1955 146.05 70.4034 145.279 70.8454C144.508 71.2874 143.883 71.9442 143.481 72.7352L145.641 73.6343C145.855 73.2417 146.179 72.9198 146.574 72.7082C146.969 72.4965 147.417 72.4041 147.863 72.4425C148.48 72.3824 149.096 72.5688 149.576 72.9607C150.055 73.3526 150.359 73.9181 150.421 74.5333V74.7006C149.64 74.2867 148.769 74.0713 147.884 74.0733C145.557 74.0733 143.187 75.3488 143.187 77.7323C143.21 78.2346 143.334 78.7273 143.551 79.1811C143.768 79.6349 144.074 80.0406 144.452 80.374C144.829 80.7075 145.27 80.9619 145.748 81.1223C146.226 81.2827 146.731 81.3456 147.234 81.3075C147.847 81.3435 148.458 81.215 149.003 80.9356C149.549 80.6561 150.01 80.2359 150.337 79.7186H150.421V80.973H152.77V74.7424C152.77 71.8571 150.61 70.2472 147.821 70.2472V70.2472ZM147.528 79.154C146.731 79.154 145.62 78.7568 145.62 77.774C145.62 76.5197 147.004 76.0387 148.199 76.0387C148.975 76.018 149.743 76.2058 150.421 76.5823C150.332 77.2872 149.99 77.936 149.458 78.4088C148.926 78.8815 148.24 79.1462 147.528 79.154V79.154ZM161.325 70.6026L158.536 77.6486H158.452L155.558 70.6026H152.937L157.278 80.4503L154.804 85.9282H157.341L164.029 70.6026H161.325ZM139.413 81.0001H141.845V64.7483H139.413V81.0001Z" fill="white"/>
<path d="M13.6044 51.7995C13.1769 52.3091 12.9611 52.9626 13.0011 53.6258V82.3766C12.961 83.0399 13.1768 83.6933 13.6044 84.203L13.7009 84.2967L29.8525 68.1912V67.8112L13.7009 51.7051L13.6044 51.7995Z" fill="url(#paint0_linear_619_1287)"/>
<path d="M35.2361 73.5621L29.8525 68.1913V67.8113L35.2374 62.4418L35.3587 62.5108L41.7375 66.1249C43.5595 67.1571 43.5595 68.8461 41.7375 69.8789L35.3587 73.493L35.2361 73.5621Z" fill="url(#paint1_linear_619_1287)"/>
<path d="M35.3587 73.4924L29.8526 68.0013L13.6045 84.203C13.9757 84.5295 14.4498 84.7162 14.9446 84.7308C15.4395 84.7454 15.9238 84.5869 16.3137 84.2828L35.3587 73.4924Z" fill="url(#paint2_linear_619_1287)"/>
<path d="M35.3587 62.5101L16.3137 51.7197C15.9238 51.4156 15.4395 51.2571 14.9446 51.2717C14.4498 51.2863 13.9757 51.473 13.6045 51.7995L29.8526 68.0013L35.3587 62.5101Z" fill="url(#paint3_linear_619_1287)"/>
<path opacity="0.2" d="M35.2374 73.3715L16.3137 84.0929C15.9388 84.3775 15.4812 84.5328 15.01 84.5353C14.5388 84.5378 14.0796 84.3874 13.7016 84.1068L13.6045 84.2037L13.701 84.2974L13.7016 84.2967C14.0795 84.5775 14.5388 84.728 15.01 84.7255C15.4812 84.723 15.9389 84.5676 16.3137 84.2828L35.3587 73.4924L35.2374 73.3715Z" fill="black"/>
<path opacity="0.12" d="M13.6046 84.0137C13.1772 83.504 12.9613 82.8506 13.0013 82.1874V82.3773C12.9613 83.0406 13.1772 83.694 13.6046 84.2037L13.7018 84.1068L13.6046 84.0137Z" fill="black"/>
<path opacity="0.12" d="M41.7374 69.6883L35.2373 73.3715L35.3587 73.4924L41.7374 69.8782C42.1127 69.7159 42.4374 69.4561 42.6777 69.1261C42.9181 68.7961 43.0653 68.4079 43.1041 68.0018C43.0235 68.3695 42.8579 68.7134 42.6207 69.0062C42.3835 69.2989 42.081 69.5325 41.7374 69.6883V69.6883Z" fill="black"/>
<path opacity="0.25" d="M16.3138 51.9102L41.7376 66.3142C42.0813 66.47 42.3838 66.7036 42.6211 66.9965C42.8584 67.2894 43.0238 67.6334 43.1043 68.0013C43.0658 67.5951 42.9186 67.2067 42.6782 66.8765C42.4378 66.5463 42.113 66.2865 41.7376 66.1242L16.3138 51.7203C14.4917 50.688 13.0012 51.5455 13.0012 53.6265V53.8164C13.0012 51.7355 14.4917 50.8781 16.3138 51.9102Z" fill="white"/>
<defs>
<linearGradient id="paint0_linear_619_1287" x1="28.4202" y1="53.3227" x2="6.60323" y2="75.2019" gradientUnits="userSpaceOnUse">
<stop stop-color="#00A0FF"/>
<stop offset="0.00657" stop-color="#00A1FF"/>
<stop offset="0.2601" stop-color="#00BEFF"/>
<stop offset="0.5122" stop-color="#00D2FF"/>
<stop offset="0.7604" stop-color="#00DFFF"/>
<stop offset="1" stop-color="#00E3FF"/>
</linearGradient>
<linearGradient id="paint1_linear_619_1287" x1="44.1098" y1="68.0019" x2="12.5642" y2="68.0019" gradientUnits="userSpaceOnUse">
<stop stop-color="#FFE000"/>
<stop offset="0.4087" stop-color="#FFBD00"/>
<stop offset="0.7754" stop-color="#FFA500"/>
<stop offset="1" stop-color="#FF9C00"/>
</linearGradient>
<linearGradient id="paint2_linear_619_1287" x1="32.3668" y1="70.985" x2="2.78132" y2="100.655" gradientUnits="userSpaceOnUse">
<stop stop-color="#FF3A44"/>
<stop offset="1" stop-color="#C31162"/>
</linearGradient>
<linearGradient id="paint3_linear_619_1287" x1="9.51338" y1="42.2292" x2="22.7245" y2="55.478" gradientUnits="userSpaceOnUse">
<stop stop-color="#32A071"/>
<stop offset="0.0685" stop-color="#2DA771"/>
<stop offset="0.4762" stop-color="#15CF74"/>
<stop offset="0.8009" stop-color="#06E775"/>
<stop offset="1" stop-color="#00F076"/>
</linearGradient>
</defs>
</svg>
