<svg width="195" height="49" viewBox="0 0 195 49" fill="none" xmlns="http://www.w3.org/2000/svg">
<g clip-path="url(#clip0_1173_802)">
<path fill-rule="evenodd" clip-rule="evenodd" d="M62.5743 38.5819L64.991 32.9662C67.6014 34.9181 71.0792 35.9328 74.5106 35.9328C77.0435 35.9328 78.6469 34.9569 78.6469 33.4774C78.6082 29.3412 63.4729 32.5789 63.3567 22.2073C63.3179 16.9401 67.9964 12.8813 74.6268 12.8813C78.5694 12.8813 82.5043 13.8573 85.316 16.0803L83.0543 21.8122C80.4826 20.1701 77.2836 19.0005 74.2395 19.0005C72.1714 19.0005 70.8081 19.9765 70.8081 21.2236C70.8469 25.2824 86.0984 23.0593 86.2533 32.9662C86.2533 38.3495 81.691 42.1372 75.138 42.1372C70.3356 42.1295 65.9283 40.9986 62.5743 38.5819ZM155.377 30.9368C154.169 33.0437 151.907 34.4844 149.289 34.4844C145.424 34.4844 142.31 31.3628 142.31 27.5054C142.31 23.648 145.431 20.5264 149.289 20.5264C151.899 20.5264 154.169 21.9672 155.377 24.074L162.046 20.3715C159.552 15.9254 154.749 12.8813 149.289 12.8813C141.21 12.8813 134.657 19.4343 134.657 27.5132C134.657 35.592 141.21 42.145 149.289 42.145C154.788 42.145 159.552 39.1396 162.046 34.6548L155.377 30.9368ZM89.6072 0.743652H97.9572V41.5873H89.6072V0.743652ZM165.322 0.743652V41.5873H173.672V29.3334L183.579 41.5873H194.269L181.666 27.0329L193.331 13.4545H183.107L173.665 24.7247V0.743652H165.322Z" fill="#D2D1DA"/>
<path d="M122.767 31.0142C121.559 33.0049 119.065 34.4843 116.253 34.4843C112.388 34.4843 109.274 31.3628 109.274 27.5054C109.274 23.648 112.395 20.5264 116.253 20.5264C119.065 20.5264 121.559 22.0833 122.767 24.1127V31.0142ZM122.767 13.4622V16.7774C121.404 14.4769 118.011 12.8735 114.456 12.8735C107.12 12.8735 101.35 19.349 101.35 27.4666C101.35 35.5843 107.12 42.1372 114.456 42.1372C118.003 42.1372 121.396 40.5416 122.767 38.2333V41.5485H131.117V13.4622H122.767Z" fill="#D2D1DA"/>
<path fill-rule="evenodd" clip-rule="evenodd" d="M10.964 30.9754C10.964 33.8259 8.66353 36.1264 5.81307 36.1264C2.96262 36.1264 0.662109 33.8182 0.662109 30.9754C0.662109 28.1327 2.96262 25.8245 5.81307 25.8245H10.964V30.9754ZM13.5356 30.9754C13.5356 28.125 15.8362 25.8245 18.6866 25.8245C21.5371 25.8245 23.8376 28.125 23.8376 30.9754V43.849C23.8376 46.6995 21.5371 49 18.6866 49C15.8362 49 13.5356 46.6995 13.5356 43.849V30.9754Z" fill="#D2D1DA"/>
<path fill-rule="evenodd" clip-rule="evenodd" d="M18.6865 10.3019C15.8361 10.3019 13.5356 8.00142 13.5356 5.15096C13.5356 2.30051 15.8361 0 18.6865 0C21.537 0 23.8375 2.30051 23.8375 5.15096V10.3019H18.6865ZM18.6865 12.9123C21.537 12.9123 23.8375 15.2128 23.8375 18.0632C23.8375 20.9137 21.537 23.2142 18.6865 23.2142H5.77426C2.9238 23.2142 0.623291 20.9059 0.623291 18.0632C0.623291 15.2205 2.9238 12.9123 5.77426 12.9123H18.6865Z" fill="#D2D1DA"/>
<path fill-rule="evenodd" clip-rule="evenodd" d="M39.3214 18.0632C39.3214 15.2128 41.6219 12.9123 44.4724 12.9123C47.3228 12.9123 49.6233 15.2128 49.6233 18.0632C49.6233 20.9137 47.3228 23.2142 44.4724 23.2142H39.3214V18.0632ZM36.7498 18.0632C36.7498 20.9137 34.4493 23.2142 31.5988 23.2142C28.7484 23.2142 26.4479 20.9137 26.4479 18.0632V5.15096C26.4479 2.30051 28.7484 0 31.5988 0C34.4493 0 36.7498 2.30051 36.7498 5.15096V18.0632Z" fill="#D2D1DA"/>
<path fill-rule="evenodd" clip-rule="evenodd" d="M31.5988 38.698C34.4493 38.698 36.7498 40.9985 36.7498 43.849C36.7498 46.6995 34.4493 49 31.5988 49C28.7484 49 26.4479 46.6995 26.4479 43.849V38.698H31.5988ZM31.5988 36.1264C28.7484 36.1264 26.4479 33.8259 26.4479 30.9754C26.4479 28.125 28.7484 25.8245 31.5988 25.8245H44.5111C47.3616 25.8245 49.6621 28.125 49.6621 30.9754C49.6621 33.8259 47.3616 36.1264 44.5111 36.1264H31.5988Z" fill="#D2D1DA"/>
</g>
<defs>
<clipPath id="clip0_1173_802">
<rect width="193.645" height="49" fill="white" transform="translate(0.623291)"/>
</clipPath>
</defs>
</svg>
