<svg width="165" height="49" viewBox="0 0 165 49" fill="none" xmlns="http://www.w3.org/2000/svg">
<g clip-path="url(#clip0_1173_817)">
<path d="M25.4352 0C11.9045 0 0.935303 10.9689 0.935303 24.4995C0.935303 38.0316 11.9045 49 25.4352 49C38.9664 49 49.935 38.0316 49.935 24.4995C49.935 10.9698 38.9669 0.00116934 25.4349 0.00116934L25.4352 0ZM36.6706 35.3354C36.2306 36.0571 35.2903 36.2833 34.5709 35.8436C28.8177 32.3273 21.5763 31.533 13.0481 33.4811C12.2263 33.6696 11.4072 33.1544 11.22 32.3328C11.0318 31.511 11.5447 30.6919 12.3685 30.5046C21.7012 28.371 29.7065 29.2893 36.1642 33.2354C36.8839 33.6772 37.1121 34.6163 36.6703 35.336L36.6706 35.3354ZM39.6694 28.6653C39.1152 29.5644 37.9397 29.8464 37.0419 29.2943C30.4578 25.247 20.418 24.0747 12.6286 26.4392C11.6184 26.7444 10.5514 26.175 10.2448 25.1666C9.94058 24.1564 10.5102 23.0915 11.5187 22.7843C20.4163 20.0845 31.4774 21.3923 39.0401 26.0396C39.9382 26.5925 40.222 27.7686 39.6691 28.6656L39.6694 28.6653ZM39.9268 21.7188C32.0294 17.0287 19.0029 16.5975 11.4639 18.8856C10.2533 19.2528 8.97308 18.5693 8.6062 17.3587C8.23933 16.1475 8.92217 14.8682 10.1337 14.5001C18.7879 11.873 33.1745 12.3805 42.2655 17.7774C43.3544 18.4237 43.7117 19.83 43.0662 20.9174C42.4226 22.0063 41.0125 22.3653 39.9271 21.7188H39.9268ZM67.5913 22.6175C63.3612 21.6088 62.6081 20.9008 62.6081 19.4131C62.6081 18.0076 63.9313 17.0618 65.8991 17.0618C67.8066 17.0618 69.698 17.78 71.681 19.2586C71.741 19.3034 71.8161 19.3212 71.8902 19.3095C71.9642 19.2984 72.0297 19.2577 72.073 19.1966L74.1385 16.285C74.2233 16.1651 74.2002 15.9998 74.0858 15.9082C71.7258 14.0145 69.0681 13.0938 65.9617 13.0938C61.3943 13.0938 58.2039 15.8348 58.2039 19.7566C58.2039 23.9621 60.956 25.4513 65.7119 26.6007C69.7598 27.5331 70.4429 28.3142 70.4429 29.7106C70.4429 31.258 69.0614 32.2199 66.8383 32.2199C64.3691 32.2199 62.3551 31.3882 60.1021 29.4371C60.0462 29.3888 59.9695 29.3669 59.8987 29.371C59.8241 29.3771 59.756 29.4116 59.7086 29.4687L57.3927 32.2249C57.2955 32.3393 57.3078 32.5101 57.4202 32.609C60.0415 34.9492 63.2655 36.1853 66.7447 36.1853C71.6664 36.1853 74.8468 33.4961 74.8468 29.3338C74.8556 25.8202 72.7521 23.8747 67.6001 22.6213L67.5913 22.6175ZM85.9816 18.4456C83.8483 18.4456 82.0985 19.2858 80.6555 21.0075V19.0696C80.6555 18.9166 80.5315 18.792 80.3788 18.792H76.591C76.438 18.792 76.3143 18.9166 76.3143 19.0696V40.6026C76.3143 40.7556 76.438 40.8803 76.591 40.8803H80.3788C80.5315 40.8803 80.6555 40.7556 80.6555 40.6026V33.8056C82.0988 35.4252 83.8489 36.2166 85.9816 36.2166C89.9455 36.2166 93.9583 33.1652 93.9583 27.3321C93.9641 21.4976 89.9502 18.4453 85.986 18.4453L85.9816 18.4456ZM89.5538 27.3321C89.5538 30.3025 87.7241 32.3753 85.1042 32.3753C82.5142 32.3753 80.5605 30.2083 80.5605 27.3321C80.5605 24.4563 82.5142 22.289 85.1042 22.289C87.6817 22.2887 89.5541 24.4092 89.5541 27.3318L89.5538 27.3321ZM104.243 18.4456C99.1383 18.4456 95.139 22.3764 95.139 27.3956C95.139 32.36 99.1108 36.2496 104.181 36.2496C109.304 36.2496 113.315 32.332 113.315 27.3321C113.315 22.3495 109.331 18.4462 104.243 18.4462L104.243 18.4456ZM104.243 32.4048C101.528 32.4048 99.4809 30.2232 99.4809 27.3306C99.4809 24.4258 101.457 22.3179 104.181 22.3179C106.913 22.3179 108.974 24.4995 108.974 27.3941C108.974 30.2984 106.985 32.4048 104.243 32.4048H104.243ZM124.216 18.792H120.048V14.5306C120.048 14.3779 119.925 14.2532 119.772 14.2532H115.985C115.831 14.2532 115.707 14.3779 115.707 14.5306V18.792H113.886C113.733 18.792 113.61 18.9166 113.61 19.0696V22.325C113.61 22.4777 113.733 22.6026 113.886 22.6026H115.707V31.0257C115.707 34.4296 117.401 36.1554 120.742 36.1554C122.101 36.1554 123.228 35.8749 124.291 35.2725C124.377 35.2242 124.43 35.1312 124.43 35.0323V31.9323C124.43 31.8367 124.381 31.7463 124.299 31.6963C124.216 31.6445 124.114 31.6418 124.029 31.6837C123.299 32.0508 122.594 32.2202 121.806 32.2202C120.59 32.2202 120.048 31.6684 120.048 30.4318V22.6041H124.216C124.369 22.6041 124.492 22.4794 124.492 22.3264V19.0714C124.498 18.9184 124.375 18.7938 124.22 18.7938L124.216 18.792ZM138.739 18.8087V18.2853C138.739 16.7455 139.329 16.0589 140.654 16.0589C141.443 16.0589 142.077 16.2157 142.788 16.4527C142.875 16.4802 142.966 16.4664 143.038 16.4141C143.111 16.3617 143.152 16.2777 143.152 16.1888V12.997C143.152 12.875 143.074 12.767 142.956 12.731C142.206 12.5078 141.245 12.2787 139.808 12.2787C136.309 12.2787 134.46 14.2488 134.46 17.974V18.7756H132.64C132.488 18.7756 132.362 18.9002 132.362 19.0529V22.3249C132.362 22.4777 132.488 22.6026 132.64 22.6026H134.46V35.5949C134.46 35.7479 134.583 35.8725 134.736 35.8725H138.524C138.677 35.8725 138.802 35.7479 138.802 35.5949V22.6035H142.338L147.755 35.5926C147.14 36.9573 146.536 37.2288 145.71 37.2288C145.043 37.2288 144.34 37.0296 143.622 36.6364C143.554 36.5992 143.474 36.5931 143.401 36.6156C143.329 36.6411 143.268 36.6949 143.237 36.7651L141.953 39.5816C141.892 39.7147 141.945 39.871 142.073 39.94C143.413 40.6658 144.623 40.9756 146.118 40.9756C148.915 40.9756 150.461 39.6729 151.823 36.168L158.395 19.1878C158.428 19.1024 158.418 19.0058 158.365 18.9301C158.313 18.8549 158.229 18.8095 158.137 18.8095H154.194C154.076 18.8095 153.97 18.8847 153.932 18.9956L149.893 30.5336L145.468 18.988C145.428 18.8806 145.324 18.8095 145.21 18.8095H138.738L138.739 18.8087ZM130.319 18.792H126.531C126.378 18.792 126.254 18.9166 126.254 19.0696V35.5949C126.254 35.7479 126.378 35.8725 126.531 35.8725H130.319C130.472 35.8725 130.597 35.7479 130.597 35.5949V19.0708C130.597 19.0343 130.59 18.9981 130.576 18.9644C130.562 18.9306 130.541 18.9 130.515 18.8742C130.49 18.8484 130.459 18.8279 130.425 18.814C130.391 18.8001 130.355 18.793 130.319 18.7932L130.319 18.792ZM128.447 11.2677C126.946 11.2677 125.729 12.4823 125.729 13.9829C125.729 15.4843 126.946 16.7005 128.447 16.7005C129.947 16.7005 131.163 15.4843 131.163 13.9829C131.163 12.4826 129.946 11.2677 128.448 11.2677H128.447ZM161.629 24.1052C160.13 24.1052 158.963 22.9013 158.963 21.4394C158.963 19.9774 160.145 18.7598 161.643 18.7598C163.142 18.7598 164.308 19.9634 164.308 21.4242C164.308 22.8861 163.126 24.1052 161.629 24.1052H161.629ZM161.643 19.0249C160.278 19.0249 159.245 20.1103 159.245 21.4394C159.245 22.7679 160.271 23.8387 161.63 23.8387C162.995 23.8387 164.029 22.7541 164.029 21.4242C164.029 20.0956 163.002 19.0249 161.645 19.0249H161.643ZM162.234 21.6983L162.988 22.7538H162.353L161.674 21.7855H161.09V22.7538H160.558V19.9558H161.806C162.456 19.9558 162.883 20.2884 162.883 20.8484C162.886 21.3071 162.62 21.5874 162.237 21.6983H162.234V21.6983ZM161.784 20.4359H161.09V21.3209H161.784C162.13 21.3209 162.337 21.1515 162.337 20.878C162.337 20.5901 162.129 20.4359 161.784 20.4359H161.784V20.4359Z" fill="#D2D1DA"/>
</g>
<defs>
<clipPath id="clip0_1173_817">
<rect width="163.373" height="49" fill="white" transform="translate(0.935303)"/>
</clipPath>
</defs>
</svg>
